G04*
G04 #@! TF.GenerationSoftware,Altium Limited,Altium Designer,21.9.2 (33)*
G04*
G04 Layer_Color=32768*
%FSLAX25Y25*%
%MOIN*%
G70*
G04*
G04 #@! TF.SameCoordinates,B3B583D4-C640-4B2B-ADA5-D9C5F36933B9*
G04*
G04*
G04 #@! TF.FilePolarity,Positive*
G04*
G01*
G75*
%ADD13C,0.00100*%
%ADD69C,0.00200*%
%ADD70C,0.00394*%
%ADD71C,0.00197*%
G36*
X304168Y463091D02*
X315979D01*
Y461910D01*
X304168D01*
Y463091D01*
D01*
D02*
G37*
G36*
X336098Y456910D02*
Y456636D01*
X336307Y456130D01*
X336695Y455742D01*
X337201Y455532D01*
X337750D01*
X338256Y455742D01*
X338644Y456130D01*
X338854Y456636D01*
Y456910D01*
Y457185D01*
X338644Y457691D01*
X338256Y458079D01*
X337750Y458288D01*
X337201D01*
X336695Y458079D01*
X336307Y457691D01*
X336098Y457185D01*
Y456910D01*
D01*
D01*
D02*
G37*
G36*
X341551Y468091D02*
Y467817D01*
X341760Y467311D01*
X342148Y466923D01*
X342654Y466713D01*
X343203D01*
X343709Y466923D01*
X344097Y467311D01*
X344307Y467817D01*
Y468091D01*
Y468365D01*
X344097Y468872D01*
X343709Y469260D01*
X343203Y469469D01*
X342654D01*
X342148Y469260D01*
X341760Y468872D01*
X341551Y468365D01*
Y468091D01*
D01*
D01*
D02*
G37*
G36*
X347003Y456910D02*
Y456636D01*
X347212Y456130D01*
X347600Y455742D01*
X348107Y455532D01*
X348655D01*
X349161Y455742D01*
X349549Y456130D01*
X349759Y456636D01*
Y456910D01*
Y457185D01*
X349549Y457691D01*
X349161Y458079D01*
X348655Y458288D01*
X348107D01*
X347600Y458079D01*
X347212Y457691D01*
X347003Y457185D01*
Y456910D01*
D01*
D01*
D02*
G37*
G36*
X357909D02*
Y456636D01*
X358118Y456130D01*
X358506Y455742D01*
X359013Y455532D01*
X359561D01*
X360067Y455742D01*
X360455Y456130D01*
X360665Y456636D01*
Y456910D01*
Y457185D01*
X360455Y457691D01*
X360067Y458079D01*
X359561Y458288D01*
X359013D01*
X358506Y458079D01*
X358118Y457691D01*
X357909Y457185D01*
Y456910D01*
D01*
D01*
D02*
G37*
G36*
X352456Y468091D02*
Y467817D01*
X352665Y467311D01*
X353053Y466923D01*
X353559Y466713D01*
X354108D01*
X354614Y466923D01*
X355002Y467311D01*
X355212Y467817D01*
Y468091D01*
Y468365D01*
X355002Y468872D01*
X354614Y469260D01*
X354108Y469469D01*
X353559D01*
X353053Y469260D01*
X352665Y468872D01*
X352456Y468365D01*
Y468091D01*
D01*
D01*
D02*
G37*
G36*
X368814Y456910D02*
Y456636D01*
X369023Y456130D01*
X369411Y455742D01*
X369917Y455532D01*
X370466D01*
X370972Y455742D01*
X371360Y456130D01*
X371570Y456636D01*
Y456910D01*
Y457185D01*
X371360Y457691D01*
X370972Y458079D01*
X370466Y458288D01*
X369917D01*
X369411Y458079D01*
X369023Y457691D01*
X368814Y457185D01*
Y456910D01*
D01*
D01*
D02*
G37*
G36*
X363362Y468091D02*
Y467817D01*
X363571Y467311D01*
X363959Y466923D01*
X364465Y466713D01*
X365014D01*
X365520Y466923D01*
X365908Y467311D01*
X366118Y467817D01*
Y468091D01*
Y468365D01*
X365908Y468872D01*
X365520Y469260D01*
X365014Y469469D01*
X364465D01*
X363959Y469260D01*
X363571Y468872D01*
X363362Y468365D01*
Y468091D01*
D01*
D01*
D02*
G37*
G36*
X374267D02*
Y467817D01*
X374476Y467311D01*
X374864Y466923D01*
X375371Y466713D01*
X375919D01*
X376425Y466923D01*
X376813Y467311D01*
X377023Y467817D01*
Y468091D01*
Y468365D01*
X376813Y468872D01*
X376425Y469260D01*
X375919Y469469D01*
X375371D01*
X374864Y469260D01*
X374476Y468872D01*
X374267Y468365D01*
Y468091D01*
D01*
D01*
D02*
G37*
G36*
X379720Y456910D02*
Y456636D01*
X379929Y456130D01*
X380317Y455742D01*
X380823Y455532D01*
X381372D01*
X381878Y455742D01*
X382266Y456130D01*
X382476Y456636D01*
Y456910D01*
Y457185D01*
X382266Y457691D01*
X381878Y458079D01*
X381372Y458288D01*
X380823D01*
X380317Y458079D01*
X379929Y457691D01*
X379720Y457185D01*
Y456910D01*
D01*
D01*
D02*
G37*
G36*
X402594Y463091D02*
X414405D01*
Y461910D01*
X402594D01*
Y463091D01*
D01*
D02*
G37*
G36*
X419759Y451280D02*
Y451183D01*
X419898Y451044D01*
X420093D01*
X420231Y451183D01*
Y451280D01*
Y451378D01*
X420093Y451517D01*
X419898D01*
X419759Y451378D01*
Y451280D01*
D01*
D01*
D02*
G37*
D13*
X365123Y391500D02*
G03*
X365123Y391500I-500J0D01*
G01*
X374500D02*
G03*
X374500Y391500I-500J0D01*
G01*
X355747D02*
G03*
X355747Y391500I-500J0D01*
G01*
X346370D02*
G03*
X346370Y391500I-500J0D01*
G01*
X349370Y435500D02*
G03*
X349370Y435500I-500J0D01*
G01*
X323000Y405500D02*
G03*
X323000Y405500I-500J0D01*
G01*
X297500Y427630D02*
G03*
X297500Y427630I-500J0D01*
G01*
X364623Y390713D02*
Y392287D01*
X363836Y391500D02*
X365411D01*
X374000Y390713D02*
Y392287D01*
X373213Y391500D02*
X374787D01*
X355247Y390713D02*
Y392287D01*
X354459Y391500D02*
X356034D01*
X345870Y390713D02*
Y392287D01*
X345083Y391500D02*
X346657D01*
X348870Y434713D02*
Y436287D01*
X348083Y435500D02*
X349658D01*
X321713Y405500D02*
X323287D01*
X322500Y404713D02*
Y406287D01*
X296213Y427630D02*
X297787D01*
X297000Y426842D02*
Y428417D01*
D69*
X321982Y499902D02*
X325822D01*
X321982D02*
Y518800D01*
X303281D02*
X321982D01*
X303281Y499902D02*
Y518800D01*
X298578Y499902D02*
X303281D01*
X298578Y451280D02*
Y499902D01*
Y451280D02*
X419995D01*
Y499902D01*
X415379D02*
X419995D01*
X415379D02*
Y518800D01*
X396678D02*
X415379D01*
X396678Y499902D02*
Y518800D01*
X392751Y499902D02*
X396678D01*
X392751D02*
Y523525D01*
X325822D02*
X392751D01*
X325822Y499902D02*
Y523525D01*
D70*
X362500Y374031D02*
Y377969D01*
X360531Y376000D02*
X364469D01*
D71*
X354724Y368913D02*
X370276D01*
X354724Y383087D02*
X370276D01*
Y368913D02*
Y383087D01*
X354724Y368913D02*
Y383087D01*
M02*
