G04*
G04 #@! TF.GenerationSoftware,Altium Limited,Altium Designer,21.9.2 (33)*
G04*
G04 Layer_Physical_Order=2*
G04 Layer_Color=16711680*
%FSLAX25Y25*%
%MOIN*%
G70*
G04*
G04 #@! TF.SameCoordinates,B3B583D4-C640-4B2B-ADA5-D9C5F36933B9*
G04*
G04*
G04 #@! TF.FilePolarity,Positive*
G04*
G01*
G75*
%ADD12C,0.01000*%
%ADD56C,0.01200*%
%ADD58C,0.06693*%
%ADD59R,0.06693X0.06693*%
%ADD60C,0.16535*%
%ADD61C,0.06299*%
%ADD62O,0.03937X0.06299*%
%ADD63O,0.03937X0.08268*%
%ADD64C,0.02559*%
%ADD65C,0.01600*%
G36*
X431110Y499141D02*
X432143Y498712D01*
X433031Y498031D01*
X433712Y497143D01*
X434141Y496109D01*
X434286Y495001D01*
X434286Y495000D01*
Y386500D01*
X407500D01*
Y367714D01*
X286500D01*
X286499Y367713D01*
X285390Y367859D01*
X284357Y368288D01*
X283469Y368969D01*
X282788Y369857D01*
X282359Y370890D01*
X282213Y371999D01*
X282214Y372000D01*
X282214Y494501D01*
X282214Y494510D01*
X282214Y495000D01*
X282276Y495473D01*
X282359Y496109D01*
X282788Y497143D01*
X283469Y498031D01*
X284357Y498712D01*
X285390Y499141D01*
X286499Y499287D01*
X286500Y499286D01*
X430000D01*
X430001Y499287D01*
X431110Y499141D01*
D02*
G37*
%LPC*%
G36*
X376111Y471641D02*
X375177D01*
X374274Y471399D01*
X373464Y470932D01*
X372804Y470271D01*
X372336Y469461D01*
X372094Y468559D01*
Y467624D01*
X372336Y466721D01*
X372804Y465912D01*
X373464Y465251D01*
X374274Y464784D01*
X375177Y464542D01*
X376111D01*
X377014Y464784D01*
X377823Y465251D01*
X378484Y465912D01*
X378952Y466721D01*
X379194Y467624D01*
Y468559D01*
X378952Y469461D01*
X378484Y470271D01*
X377823Y470932D01*
X377014Y471399D01*
X376111Y471641D01*
D02*
G37*
G36*
X365207D02*
X364273D01*
X363370Y471399D01*
X362561Y470932D01*
X361900Y470271D01*
X361432Y469461D01*
X361190Y468559D01*
Y467624D01*
X361432Y466721D01*
X361900Y465912D01*
X362561Y465251D01*
X363370Y464784D01*
X364273Y464542D01*
X365207D01*
X366110Y464784D01*
X366919Y465251D01*
X367580Y465912D01*
X368048Y466721D01*
X368290Y467624D01*
Y468559D01*
X368048Y469461D01*
X367580Y470271D01*
X366919Y470932D01*
X366110Y471399D01*
X365207Y471641D01*
D02*
G37*
G36*
X354300D02*
X353366D01*
X352463Y471399D01*
X351654Y470932D01*
X350993Y470271D01*
X350525Y469461D01*
X350284Y468559D01*
Y467624D01*
X350525Y466721D01*
X350993Y465912D01*
X351654Y465251D01*
X352463Y464784D01*
X353366Y464542D01*
X354300D01*
X355203Y464784D01*
X356013Y465251D01*
X356674Y465912D01*
X357141Y466721D01*
X357383Y467624D01*
Y468559D01*
X357141Y469461D01*
X356674Y470271D01*
X356013Y470932D01*
X355203Y471399D01*
X354300Y471641D01*
D02*
G37*
G36*
X343396D02*
X342462D01*
X341559Y471399D01*
X340750Y470932D01*
X340089Y470271D01*
X339621Y469461D01*
X339380Y468559D01*
Y467624D01*
X339621Y466721D01*
X340089Y465912D01*
X340750Y465251D01*
X341559Y464784D01*
X342462Y464542D01*
X343396D01*
X344299Y464784D01*
X345109Y465251D01*
X345770Y465912D01*
X346237Y466721D01*
X346479Y467624D01*
Y468559D01*
X346237Y469461D01*
X345770Y470271D01*
X345109Y470932D01*
X344299Y471399D01*
X343396Y471641D01*
D02*
G37*
G36*
X409354Y471167D02*
X407647D01*
X405972Y470834D01*
X404395Y470181D01*
X402975Y469232D01*
X401768Y468025D01*
X400819Y466605D01*
X400166Y465028D01*
X399833Y463353D01*
Y461646D01*
X400166Y459971D01*
X400819Y458394D01*
X401768Y456974D01*
X402975Y455767D01*
X404395Y454818D01*
X405972Y454165D01*
X407647Y453832D01*
X409354D01*
X411029Y454165D01*
X412606Y454818D01*
X414026Y455767D01*
X415233Y456974D01*
X416182Y458394D01*
X416835Y459971D01*
X417168Y461646D01*
Y463353D01*
X416835Y465028D01*
X416182Y466605D01*
X415233Y468025D01*
X414026Y469232D01*
X412606Y470181D01*
X411029Y470834D01*
X409354Y471167D01*
D02*
G37*
G36*
X310927D02*
X309219D01*
X307544Y470834D01*
X305967Y470181D01*
X304548Y469232D01*
X303340Y468025D01*
X302392Y466605D01*
X301738Y465028D01*
X301405Y463353D01*
Y461646D01*
X301738Y459971D01*
X302392Y458394D01*
X303340Y456974D01*
X304548Y455767D01*
X305967Y454818D01*
X307544Y454165D01*
X309219Y453832D01*
X310927D01*
X312601Y454165D01*
X314178Y454818D01*
X315598Y455767D01*
X316805Y456974D01*
X317754Y458394D01*
X318407Y459971D01*
X318741Y461646D01*
Y463353D01*
X318407Y465028D01*
X317754Y466605D01*
X316805Y468025D01*
X315598Y469232D01*
X314178Y470181D01*
X312601Y470834D01*
X310927Y471167D01*
D02*
G37*
G36*
X370658Y460460D02*
X369723D01*
X368821Y460218D01*
X368011Y459751D01*
X367350Y459090D01*
X366883Y458281D01*
X366641Y457378D01*
Y456444D01*
X366883Y455541D01*
X367350Y454731D01*
X368011Y454070D01*
X368821Y453603D01*
X369723Y453361D01*
X370658D01*
X371561Y453603D01*
X372370Y454070D01*
X373031Y454731D01*
X373498Y455541D01*
X373740Y456444D01*
Y457378D01*
X373498Y458281D01*
X373031Y459090D01*
X372370Y459751D01*
X371561Y460218D01*
X370658Y460460D01*
D02*
G37*
G36*
X359754D02*
X358819D01*
X357916Y460218D01*
X357107Y459751D01*
X356446Y459090D01*
X355979Y458281D01*
X355737Y457378D01*
Y456444D01*
X355979Y455541D01*
X356446Y454731D01*
X357107Y454070D01*
X357916Y453603D01*
X358819Y453361D01*
X359754D01*
X360657Y453603D01*
X361466Y454070D01*
X362127Y454731D01*
X362594Y455541D01*
X362836Y456444D01*
Y457378D01*
X362594Y458281D01*
X362127Y459090D01*
X361466Y459751D01*
X360657Y460218D01*
X359754Y460460D01*
D02*
G37*
G36*
X348847D02*
X347912D01*
X347009Y460218D01*
X346200Y459751D01*
X345539Y459090D01*
X345072Y458281D01*
X344830Y457378D01*
Y456444D01*
X345072Y455541D01*
X345539Y454731D01*
X346200Y454070D01*
X347009Y453603D01*
X347912Y453361D01*
X348847D01*
X349750Y453603D01*
X350559Y454070D01*
X351220Y454731D01*
X351687Y455541D01*
X351929Y456444D01*
Y457378D01*
X351687Y458281D01*
X351220Y459090D01*
X350559Y459751D01*
X349750Y460218D01*
X348847Y460460D01*
D02*
G37*
G36*
X337943D02*
X337008D01*
X336105Y460218D01*
X335296Y459751D01*
X334635Y459090D01*
X334168Y458281D01*
X333926Y457378D01*
Y456444D01*
X334168Y455541D01*
X334635Y454731D01*
X335296Y454070D01*
X336105Y453603D01*
X337008Y453361D01*
X337943D01*
X338846Y453603D01*
X339655Y454070D01*
X340316Y454731D01*
X340783Y455541D01*
X341025Y456444D01*
Y457378D01*
X340783Y458281D01*
X340316Y459090D01*
X339655Y459751D01*
X338846Y460218D01*
X337943Y460460D01*
D02*
G37*
G36*
X312239Y442200D02*
X311761D01*
X311320Y442017D01*
X310983Y441680D01*
X310800Y441239D01*
Y440761D01*
X310983Y440320D01*
X311320Y439983D01*
X311761Y439800D01*
X311854D01*
X312068Y439612D01*
X312123Y439557D01*
X312160Y439542D01*
X313513Y438189D01*
X313811Y437990D01*
X314162Y437920D01*
X395351D01*
X395386Y437905D01*
X395621Y437900D01*
X395720Y437892D01*
X395746Y437888D01*
X395754Y437887D01*
X395820Y437820D01*
X396261Y437638D01*
X396739D01*
X397180Y437820D01*
X397517Y438158D01*
X397700Y438599D01*
Y439076D01*
X397517Y439517D01*
X397180Y439855D01*
X396739Y440038D01*
X396261D01*
X395820Y439855D01*
X395755Y439789D01*
X395471Y439771D01*
X395393Y439771D01*
X395356Y439755D01*
X314543D01*
X313461Y440837D01*
X313447Y440872D01*
X313285Y441042D01*
X313220Y441117D01*
X313204Y441138D01*
X313200Y441144D01*
Y441239D01*
X313017Y441680D01*
X312680Y442017D01*
X312239Y442200D01*
D02*
G37*
G36*
X301739Y445200D02*
X301261D01*
X300820Y445017D01*
X300483Y444680D01*
X300300Y444239D01*
Y443761D01*
X300483Y443320D01*
X300548Y443255D01*
X300567Y442971D01*
X300567Y442893D01*
X300582Y442856D01*
Y427649D01*
X300567Y427614D01*
X300562Y427379D01*
X300554Y427280D01*
X300551Y427254D01*
X300549Y427246D01*
X300483Y427180D01*
X300300Y426739D01*
Y426261D01*
X300483Y425820D01*
X300820Y425483D01*
X301261Y425300D01*
X301739D01*
X302180Y425483D01*
X302517Y425820D01*
X302700Y426261D01*
Y426739D01*
X302517Y427180D01*
X302452Y427246D01*
X302433Y427529D01*
X302433Y427607D01*
X302418Y427644D01*
Y442851D01*
X302433Y442886D01*
X302438Y443121D01*
X302446Y443220D01*
X302449Y443246D01*
X302451Y443254D01*
X302517Y443320D01*
X302700Y443761D01*
Y444239D01*
X302517Y444680D01*
X302180Y445017D01*
X301739Y445200D01*
D02*
G37*
G36*
Y424700D02*
X301261D01*
X300820Y424517D01*
X300483Y424180D01*
X300300Y423739D01*
Y423261D01*
X300483Y422820D01*
X300820Y422483D01*
X301261Y422300D01*
X301354D01*
X301568Y422112D01*
X301623Y422057D01*
X301646Y421911D01*
X301257Y421418D01*
X301149D01*
X301114Y421433D01*
X300879Y421438D01*
X300780Y421446D01*
X300754Y421449D01*
X300746Y421451D01*
X300680Y421517D01*
X300239Y421700D01*
X299761D01*
X299320Y421517D01*
X298983Y421180D01*
X298800Y420739D01*
Y420261D01*
X298983Y419820D01*
X299320Y419483D01*
X299761Y419300D01*
X300239D01*
X300680Y419483D01*
X300746Y419548D01*
X301029Y419566D01*
X301107Y419567D01*
X301144Y419582D01*
X302140D01*
X302771Y418951D01*
X303069Y418752D01*
X303420Y418682D01*
X344520D01*
X373351Y389851D01*
X373649Y389652D01*
X374000Y389582D01*
X399120D01*
X399539Y389163D01*
X399553Y389128D01*
X399715Y388958D01*
X399780Y388883D01*
X399796Y388862D01*
X399800Y388856D01*
Y388761D01*
X399983Y388320D01*
X400320Y387983D01*
X400761Y387800D01*
X401239D01*
X401680Y387983D01*
X402017Y388320D01*
X402200Y388761D01*
Y389239D01*
X402017Y389680D01*
X401680Y390017D01*
X401239Y390200D01*
X401146D01*
X400932Y390388D01*
X400877Y390443D01*
X400853Y390589D01*
X401243Y391082D01*
X402351D01*
X402386Y391067D01*
X402621Y391062D01*
X402720Y391054D01*
X402746Y391051D01*
X402754Y391049D01*
X402820Y390983D01*
X403261Y390800D01*
X403739D01*
X404180Y390983D01*
X404517Y391320D01*
X404700Y391761D01*
Y392239D01*
X404517Y392680D01*
X404180Y393017D01*
X403739Y393200D01*
X403261D01*
X402820Y393017D01*
X402754Y392952D01*
X402471Y392934D01*
X402393Y392933D01*
X402356Y392918D01*
X374880D01*
X346149Y421649D01*
X345851Y421848D01*
X345500Y421918D01*
X304380D01*
X302961Y423337D01*
X302947Y423372D01*
X302785Y423542D01*
X302720Y423617D01*
X302704Y423638D01*
X302700Y423644D01*
Y423739D01*
X302517Y424180D01*
X302180Y424517D01*
X301739Y424700D01*
D02*
G37*
G36*
X322239Y446200D02*
X321761D01*
X321320Y446017D01*
X320983Y445680D01*
X320800Y445239D01*
Y444761D01*
X320983Y444320D01*
X321320Y443983D01*
X321761Y443800D01*
X321854D01*
X322068Y443612D01*
X322123Y443557D01*
X322160Y443542D01*
X324851Y440851D01*
X325149Y440652D01*
X325500Y440582D01*
X427120D01*
X428582Y439120D01*
Y421149D01*
X428567Y421114D01*
X428562Y420879D01*
X428554Y420780D01*
X428551Y420754D01*
X428549Y420746D01*
X428483Y420680D01*
X428300Y420239D01*
Y419761D01*
X428483Y419320D01*
X428820Y418983D01*
X429261Y418800D01*
X429739D01*
X430180Y418983D01*
X430517Y419320D01*
X430700Y419761D01*
Y420239D01*
X430517Y420680D01*
X430452Y420746D01*
X430434Y421029D01*
X430433Y421107D01*
X430418Y421144D01*
Y439500D01*
X430348Y439851D01*
X430149Y440149D01*
X428149Y442149D01*
X427851Y442348D01*
X427500Y442418D01*
X325880D01*
X323461Y444837D01*
X323447Y444872D01*
X323285Y445042D01*
X323220Y445117D01*
X323204Y445138D01*
X323200Y445144D01*
Y445239D01*
X323017Y445680D01*
X322680Y446017D01*
X322239Y446200D01*
D02*
G37*
G36*
X292247Y408746D02*
X284753D01*
Y401254D01*
X292247D01*
Y408746D01*
D02*
G37*
G36*
X314239Y391200D02*
X313761D01*
X313320Y391017D01*
X313254Y390952D01*
X312971Y390933D01*
X312893Y390933D01*
X312856Y390918D01*
X311149D01*
X311114Y390933D01*
X310879Y390938D01*
X310780Y390946D01*
X310754Y390949D01*
X310746Y390951D01*
X310680Y391017D01*
X310239Y391200D01*
X309761D01*
X309320Y391017D01*
X308983Y390680D01*
X308800Y390239D01*
Y389761D01*
X308983Y389320D01*
X309320Y388983D01*
X309761Y388800D01*
X310239D01*
X310680Y388983D01*
X310746Y389048D01*
X311029Y389067D01*
X311107Y389067D01*
X311144Y389082D01*
X312851D01*
X312886Y389067D01*
X313121Y389062D01*
X313220Y389054D01*
X313246Y389051D01*
X313254Y389049D01*
X313320Y388983D01*
X313761Y388800D01*
X314239D01*
X314680Y388983D01*
X315017Y389320D01*
X315200Y389761D01*
Y390239D01*
X315017Y390680D01*
X314680Y391017D01*
X314239Y391200D01*
D02*
G37*
G36*
X346739Y398700D02*
X346261D01*
X345820Y398517D01*
X345483Y398180D01*
X345300Y397739D01*
Y397261D01*
X345483Y396820D01*
X345820Y396483D01*
X346256Y396302D01*
X350806Y391752D01*
X350800Y391739D01*
Y391261D01*
X350983Y390820D01*
X351320Y390483D01*
X351761Y390300D01*
X352239D01*
X352680Y390483D01*
X353017Y390820D01*
X353200Y391261D01*
Y391739D01*
X353017Y392180D01*
X352899Y392298D01*
X352866Y392467D01*
X352644Y392797D01*
X347698Y397744D01*
X347517Y398180D01*
X347180Y398517D01*
X346739Y398700D01*
D02*
G37*
G36*
X322740Y390959D02*
X322071D01*
X321454Y390703D01*
X320982Y390231D01*
X320726Y389614D01*
Y388945D01*
X320982Y388328D01*
X321454Y387856D01*
X322071Y387600D01*
X322740D01*
X323357Y387856D01*
X323829Y388328D01*
X324085Y388945D01*
Y389614D01*
X323829Y390231D01*
X323357Y390703D01*
X322740Y390959D01*
D02*
G37*
G36*
X299984D02*
X299316D01*
X298698Y390703D01*
X298226Y390231D01*
X297970Y389614D01*
Y388945D01*
X298226Y388328D01*
X298698Y387856D01*
X299316Y387600D01*
X299984D01*
X300601Y387856D01*
X301073Y388328D01*
X301329Y388945D01*
Y389614D01*
X301073Y390231D01*
X300601Y390703D01*
X299984Y390959D01*
D02*
G37*
%LPD*%
G36*
X312803Y440973D02*
X312813Y440948D01*
X312830Y440919D01*
X312853Y440885D01*
X312883Y440845D01*
X312964Y440751D01*
X313135Y440573D01*
X312427Y439865D01*
X312363Y439929D01*
X312115Y440147D01*
X312081Y440170D01*
X312052Y440187D01*
X312027Y440197D01*
X312008Y440200D01*
X312800Y440992D01*
X312803Y440973D01*
D02*
G37*
G36*
X395929Y438278D02*
X395913Y438289D01*
X395888Y438299D01*
X395856Y438308D01*
X395815Y438316D01*
X395766Y438323D01*
X395643Y438332D01*
X395395Y438338D01*
Y439338D01*
X395486Y439338D01*
X395815Y439359D01*
X395856Y439367D01*
X395888Y439376D01*
X395913Y439386D01*
X395929Y439398D01*
Y438278D01*
D02*
G37*
G36*
X302049Y443413D02*
X302038Y443389D01*
X302029Y443356D01*
X302022Y443315D01*
X302015Y443266D01*
X302005Y443143D01*
X302000Y442896D01*
X301000D01*
X300999Y442986D01*
X300978Y443315D01*
X300971Y443356D01*
X300962Y443389D01*
X300951Y443413D01*
X300940Y443429D01*
X302060D01*
X302049Y443413D01*
D02*
G37*
G36*
X302001Y427514D02*
X302022Y427185D01*
X302029Y427144D01*
X302038Y427111D01*
X302049Y427087D01*
X302060Y427071D01*
X300940D01*
X300951Y427087D01*
X300962Y427111D01*
X300971Y427144D01*
X300978Y427185D01*
X300985Y427234D01*
X300995Y427357D01*
X301000Y427604D01*
X302000D01*
X302001Y427514D01*
D02*
G37*
G36*
X302303Y423473D02*
X302313Y423448D01*
X302330Y423419D01*
X302353Y423385D01*
X302383Y423345D01*
X302464Y423251D01*
X302635Y423072D01*
X301927Y422365D01*
X301863Y422429D01*
X301615Y422647D01*
X301581Y422670D01*
X301552Y422687D01*
X301527Y422697D01*
X301508Y422700D01*
X302300Y423492D01*
X302303Y423473D01*
D02*
G37*
G36*
X300587Y421049D02*
X300611Y421038D01*
X300644Y421029D01*
X300685Y421022D01*
X300734Y421015D01*
X300857Y421005D01*
X301104Y421000D01*
Y420000D01*
X301014Y419999D01*
X300685Y419978D01*
X300644Y419971D01*
X300611Y419962D01*
X300587Y419951D01*
X300571Y419940D01*
Y421060D01*
X300587Y421049D01*
D02*
G37*
G36*
X402929Y391440D02*
X402913Y391451D01*
X402888Y391462D01*
X402856Y391471D01*
X402815Y391478D01*
X402766Y391485D01*
X402643Y391495D01*
X402395Y391500D01*
Y392500D01*
X402486Y392501D01*
X402815Y392522D01*
X402856Y392529D01*
X402888Y392538D01*
X402913Y392549D01*
X402929Y392560D01*
Y391440D01*
D02*
G37*
G36*
X400637Y390071D02*
X400885Y389853D01*
X400919Y389830D01*
X400948Y389813D01*
X400973Y389803D01*
X400992Y389800D01*
X400200Y389008D01*
X400197Y389027D01*
X400187Y389052D01*
X400170Y389081D01*
X400147Y389115D01*
X400117Y389155D01*
X400036Y389249D01*
X399866Y389427D01*
X400573Y390135D01*
X400637Y390071D01*
D02*
G37*
G36*
X322803Y444973D02*
X322813Y444948D01*
X322830Y444919D01*
X322853Y444885D01*
X322883Y444845D01*
X322964Y444751D01*
X323134Y444572D01*
X322427Y443865D01*
X322363Y443929D01*
X322115Y444147D01*
X322081Y444170D01*
X322052Y444187D01*
X322027Y444197D01*
X322008Y444200D01*
X322800Y444992D01*
X322803Y444973D01*
D02*
G37*
G36*
X430001Y421014D02*
X430022Y420685D01*
X430029Y420644D01*
X430038Y420611D01*
X430049Y420587D01*
X430060Y420571D01*
X428940D01*
X428951Y420587D01*
X428962Y420611D01*
X428971Y420644D01*
X428978Y420685D01*
X428985Y420734D01*
X428995Y420857D01*
X429000Y421104D01*
X430000D01*
X430001Y421014D01*
D02*
G37*
G36*
X313429Y389440D02*
X313413Y389451D01*
X313388Y389462D01*
X313356Y389471D01*
X313315Y389478D01*
X313266Y389485D01*
X313143Y389495D01*
X312895Y389500D01*
Y390500D01*
X312986Y390501D01*
X313315Y390522D01*
X313356Y390529D01*
X313388Y390538D01*
X313413Y390549D01*
X313429Y390560D01*
Y389440D01*
D02*
G37*
G36*
X310587Y390549D02*
X310612Y390538D01*
X310644Y390529D01*
X310685Y390522D01*
X310734Y390515D01*
X310857Y390505D01*
X311104Y390500D01*
Y389500D01*
X311014Y389499D01*
X310685Y389478D01*
X310644Y389471D01*
X310612Y389462D01*
X310587Y389451D01*
X310571Y389440D01*
Y390560D01*
X310587Y390549D01*
D02*
G37*
D12*
X314162Y438838D02*
X396500D01*
X312000Y441000D02*
X314162Y438838D01*
X427500Y441500D02*
X429500Y439500D01*
Y420000D02*
Y439500D01*
X325500Y441500D02*
X427500D01*
X322000Y445000D02*
X325500Y441500D01*
X399500Y390500D02*
X401000Y389000D01*
X374000Y390500D02*
X399500D01*
X374500Y392000D02*
X403500D01*
X345500Y421000D02*
X374500Y392000D01*
X304000Y421000D02*
X345500D01*
X303420Y419600D02*
X344900D01*
X374000Y390500D01*
X300000Y420500D02*
X302520D01*
X303420Y419600D01*
X301500Y423500D02*
X304000Y421000D01*
X301500Y426500D02*
Y444000D01*
X310000Y390000D02*
X314000D01*
D56*
X346500Y397500D02*
X351923Y392076D01*
Y391577D02*
Y392076D01*
Y391577D02*
X352000Y391500D01*
D58*
X288500Y415000D02*
D03*
D59*
Y405000D02*
D03*
D60*
X408500Y462500D02*
D03*
X310073D02*
D03*
D61*
X342929Y468091D02*
D03*
X353833D02*
D03*
X364740D02*
D03*
X375644D02*
D03*
X337476Y456911D02*
D03*
X348380D02*
D03*
X359287D02*
D03*
X370191D02*
D03*
X381098D02*
D03*
D62*
X328055Y375500D02*
D03*
X294000D02*
D03*
D63*
Y391248D02*
D03*
X328055D02*
D03*
D64*
X322406Y389280D02*
D03*
X299650D02*
D03*
D65*
X328500Y407500D02*
D03*
X326500D02*
D03*
X328500Y409500D02*
D03*
X326500D02*
D03*
X312500Y428500D02*
D03*
X316000D02*
D03*
X320500D02*
D03*
Y424500D02*
D03*
X316500D02*
D03*
X312000D02*
D03*
X410000Y408000D02*
D03*
X406000D02*
D03*
X401000D02*
D03*
Y412000D02*
D03*
X405500D02*
D03*
X409500D02*
D03*
Y416000D02*
D03*
X405000D02*
D03*
X401500D02*
D03*
X396500Y438838D02*
D03*
X429500Y420000D02*
D03*
X322000Y445000D02*
D03*
X312000Y441000D02*
D03*
X401000Y389000D02*
D03*
X300000Y420500D02*
D03*
X403500Y392000D02*
D03*
X301500Y423500D02*
D03*
Y444000D02*
D03*
Y426500D02*
D03*
X352000Y391500D02*
D03*
X346500Y397500D02*
D03*
X310000Y390000D02*
D03*
X314000D02*
D03*
M02*
