G04*
G04 #@! TF.GenerationSoftware,Altium Limited,Altium Designer,21.9.2 (33)*
G04*
G04 Layer_Color=8388736*
%FSLAX25Y25*%
%MOIN*%
G70*
G04*
G04 #@! TF.SameCoordinates,B3B583D4-C640-4B2B-ADA5-D9C5F36933B9*
G04*
G04*
G04 #@! TF.FilePolarity,Positive*
G04*
G01*
G75*
%ADD69C,0.00200*%
D69*
X345200Y371000D02*
Y378000D01*
X341800Y371000D02*
X345200D01*
X341800Y378000D02*
X345200D01*
X341800Y371000D02*
Y378000D01*
X350700Y371000D02*
Y378000D01*
X347300Y371000D02*
X350700D01*
X347300Y378000D02*
X350700D01*
X347300Y371000D02*
Y378000D01*
X382200Y374000D02*
Y381000D01*
X378800Y374000D02*
X382200D01*
X378800Y381000D02*
X382200D01*
X378800Y374000D02*
Y381000D01*
X377700Y374000D02*
Y381000D01*
X374300Y374000D02*
X377700D01*
X374300Y381000D02*
X377700D01*
X374300Y374000D02*
Y381000D01*
X307800Y439500D02*
Y446500D01*
X311200D01*
X307800Y439500D02*
X311200D01*
Y446500D01*
X326200Y439500D02*
Y446500D01*
X322800Y439500D02*
X326200D01*
X322800Y446500D02*
X326200D01*
X322800Y439500D02*
Y446500D01*
X335200Y413000D02*
Y420000D01*
X331800Y413000D02*
X335200D01*
X331800Y420000D02*
X335200D01*
X331800Y413000D02*
Y420000D01*
X392000Y375800D02*
X399000D01*
X392000D02*
Y379200D01*
X399000Y375800D02*
Y379200D01*
X392000D02*
X399000D01*
X392000Y385800D02*
X399000D01*
X392000D02*
Y389200D01*
X399000Y385800D02*
Y389200D01*
X392000D02*
X399000D01*
X392000Y380800D02*
X399000D01*
X392000D02*
Y384200D01*
X399000Y380800D02*
Y384200D01*
X392000D02*
X399000D01*
X424300Y418000D02*
Y425000D01*
X427700D01*
X424300Y418000D02*
X427700D01*
Y425000D01*
X424300Y409500D02*
Y416500D01*
X427700D01*
X424300Y409500D02*
X427700D01*
Y416500D01*
X316300Y402000D02*
Y409000D01*
X319700D01*
X316300Y402000D02*
X319700D01*
Y409000D01*
X308200Y402000D02*
Y409000D01*
X304800Y402000D02*
X308200D01*
X304800Y409000D02*
X308200D01*
X304800Y402000D02*
Y409000D01*
M02*
