G04*
G04 #@! TF.GenerationSoftware,Altium Limited,Altium Designer,21.9.2 (33)*
G04*
G04 Layer_Color=128*
%FSLAX25Y25*%
%MOIN*%
G70*
G04*
G04 #@! TF.SameCoordinates,DEE64308-E74D-4D4A-A80C-8121CA1ED5F1*
G04*
G04*
G04 #@! TF.FilePolarity,Positive*
G04*
G01*
G75*
%ADD10C,0.00600*%
%ADD11C,0.00000*%
%ADD12C,0.00200*%
D10*
X281500Y372000D02*
G03*
X286500Y367000I5000J0D01*
G01*
X430000D02*
G03*
X435000Y372000I0J5000D01*
G01*
Y495000D02*
G03*
X430000Y500000I-5000J0D01*
G01*
X286500D02*
G03*
X281500Y495000I0J-5000D01*
G01*
X286500Y367000D02*
X430000D01*
X435000Y372000D02*
Y495000D01*
X286500Y500000D02*
X430000D01*
X281500Y495000D02*
X281500Y372000D01*
D11*
X306150Y429306D02*
Y430506D01*
Y429306D02*
Y430506D01*
Y427337D02*
Y428537D01*
Y427337D02*
Y428537D01*
Y425368D02*
Y426569D01*
Y425368D02*
Y426569D01*
Y423400D02*
Y424600D01*
Y423400D02*
Y424600D01*
Y421431D02*
Y422632D01*
Y421431D02*
Y422632D01*
Y419463D02*
Y420663D01*
Y419463D02*
Y420663D01*
Y417494D02*
Y418694D01*
Y417494D02*
Y418694D01*
X309494Y414150D02*
X310695D01*
X309494D02*
X310695D01*
X311463D02*
X312663D01*
X311463D02*
X312663D01*
X313432D02*
X314632D01*
X313432D02*
X314632D01*
X315400D02*
X316600D01*
X315400D02*
X316600D01*
X317369D02*
X318568D01*
X317369D02*
X318568D01*
X319337D02*
X320537D01*
X319337D02*
X320537D01*
X321305D02*
X322505D01*
X321305D02*
X322505D01*
X325850Y417494D02*
Y418694D01*
Y417494D02*
Y418694D01*
Y419463D02*
Y420663D01*
Y419463D02*
Y420663D01*
Y421431D02*
Y422632D01*
Y421431D02*
Y422632D01*
Y423400D02*
Y424600D01*
Y423400D02*
Y424600D01*
Y425368D02*
Y426569D01*
Y425368D02*
Y426569D01*
Y427337D02*
Y428537D01*
Y427337D02*
Y428537D01*
Y429306D02*
Y430506D01*
Y429306D02*
Y430506D01*
X321305Y433850D02*
X322505D01*
X321305D02*
X322505D01*
X319337D02*
X320537D01*
X319337D02*
X320537D01*
X317369D02*
X318568D01*
X317369D02*
X318568D01*
X315400D02*
X316600D01*
X315400D02*
X316600D01*
X313432D02*
X314632D01*
X313432D02*
X314632D01*
X311463D02*
X312663D01*
X311463D02*
X312663D01*
X309494D02*
X310695D01*
X309494D02*
X310695D01*
X325850Y414150D02*
Y433850D01*
X306150D02*
X325850D01*
X306150Y414150D02*
Y433850D01*
Y414150D02*
X325850D01*
D12*
X286728Y415000D02*
X290272D01*
X288500Y413228D02*
Y416772D01*
X286728Y405000D02*
X290272D01*
X288500Y403228D02*
Y406772D01*
X402004Y462500D02*
X414996D01*
X408500Y456004D02*
Y468996D01*
X303577Y462500D02*
X316569D01*
X310073Y456004D02*
Y468996D01*
X340783Y468091D02*
X345075D01*
X342929Y465946D02*
Y470237D01*
X351688Y468091D02*
X355979D01*
X353833Y465946D02*
Y470237D01*
X362594Y468091D02*
X366885D01*
X364740Y465946D02*
Y470237D01*
X373499Y468091D02*
X377790D01*
X375644Y465946D02*
Y470237D01*
X335330Y456911D02*
X339621D01*
X337476Y454765D02*
Y459056D01*
X346234Y456911D02*
X350526D01*
X348380Y454765D02*
Y459056D01*
X357141Y456911D02*
X361432D01*
X359287Y454765D02*
Y459056D01*
X368045Y456911D02*
X372337D01*
X370191Y454765D02*
Y459056D01*
X378952Y456911D02*
X383243D01*
X381098Y454765D02*
Y459056D01*
X326874Y375500D02*
X329236D01*
X328055Y374319D02*
Y376681D01*
X292819Y375500D02*
X295181D01*
X294000Y374319D02*
Y376681D01*
X292819Y391248D02*
X295181D01*
X294000Y390067D02*
Y392429D01*
X326874Y391248D02*
X329236D01*
X328055Y390067D02*
Y392429D01*
X321126Y389280D02*
X323685D01*
X322406Y388000D02*
Y390559D01*
X298370Y389280D02*
X300929D01*
X299650Y388000D02*
Y390559D01*
X328100Y407500D02*
X328900D01*
X328500Y407100D02*
Y407900D01*
X326100Y407500D02*
X326900D01*
X326500Y407100D02*
Y407900D01*
X328100Y409500D02*
X328900D01*
X328500Y409100D02*
Y409900D01*
X326100Y409500D02*
X326900D01*
X326500Y409100D02*
Y409900D01*
X312100Y428500D02*
X312900D01*
X312500Y428100D02*
Y428900D01*
X315600Y428500D02*
X316400D01*
X316000Y428100D02*
Y428900D01*
X320100Y428500D02*
X320900D01*
X320500Y428100D02*
Y428900D01*
X320100Y424500D02*
X320900D01*
X320500Y424100D02*
Y424900D01*
X316100Y424500D02*
X316900D01*
X316500Y424100D02*
Y424900D01*
X311600Y424500D02*
X312400D01*
X312000Y424100D02*
Y424900D01*
X409600Y408000D02*
X410400D01*
X410000Y407600D02*
Y408400D01*
X405600Y408000D02*
X406400D01*
X406000Y407600D02*
Y408400D01*
X400600Y408000D02*
X401400D01*
X401000Y407600D02*
Y408400D01*
X400600Y412000D02*
X401400D01*
X401000Y411600D02*
Y412400D01*
X405100Y412000D02*
X405900D01*
X405500Y411600D02*
Y412400D01*
X409100Y412000D02*
X409900D01*
X409500Y411600D02*
Y412400D01*
X409100Y416000D02*
X409900D01*
X409500Y415600D02*
Y416400D01*
X404600Y416000D02*
X405400D01*
X405000Y415600D02*
Y416400D01*
X401100Y416000D02*
X401900D01*
X401500Y415600D02*
Y416400D01*
X396100Y438838D02*
X396900D01*
X396500Y438438D02*
Y439238D01*
X429100Y420000D02*
X429900D01*
X429500Y419600D02*
Y420400D01*
X321600Y445000D02*
X322400D01*
X322000Y444600D02*
Y445400D01*
X311600Y441000D02*
X312400D01*
X312000Y440600D02*
Y441400D01*
X400600Y389000D02*
X401400D01*
X401000Y388600D02*
Y389400D01*
X299600Y420500D02*
X300400D01*
X300000Y420100D02*
Y420900D01*
X403100Y392000D02*
X403900D01*
X403500Y391600D02*
Y392400D01*
X301100Y423500D02*
X301900D01*
X301500Y423100D02*
Y423900D01*
X301100Y444000D02*
X301900D01*
X301500Y443600D02*
Y444400D01*
X301100Y426500D02*
X301900D01*
X301500Y426100D02*
Y426900D01*
X351600Y391500D02*
X352400D01*
X352000Y391100D02*
Y391900D01*
X346100Y397500D02*
X346900D01*
X346500Y397100D02*
Y397900D01*
X309600Y390000D02*
X310400D01*
X310000Y389600D02*
Y390400D01*
X313600Y390000D02*
X314400D01*
X314000Y389600D02*
Y390400D01*
M02*
