G04*
G04 #@! TF.GenerationSoftware,Altium Limited,Altium Designer,21.9.2 (33)*
G04*
G04 Layer_Color=16711935*
%FSLAX25Y25*%
%MOIN*%
G70*
G04*
G04 #@! TF.SameCoordinates,B3B583D4-C640-4B2B-ADA5-D9C5F36933B9*
G04*
G04*
G04 #@! TF.FilePolarity,Positive*
G04*
G01*
G75*
%ADD69C,0.00200*%
%ADD70C,0.00394*%
D69*
X343500Y373900D02*
Y375100D01*
X342900Y374500D02*
X344100D01*
X344484Y372532D02*
Y376468D01*
X342516Y372532D02*
Y376468D01*
X342516D02*
X344484D01*
X342516Y372532D02*
X344484D01*
X349000Y373900D02*
Y375100D01*
X348400Y374500D02*
X349600D01*
X349984Y372532D02*
Y376468D01*
X348016Y372532D02*
Y376468D01*
X348016D02*
X349984D01*
X348016Y372532D02*
X349984D01*
X380500Y376900D02*
Y378100D01*
X379900Y377500D02*
X381100D01*
X381484Y375532D02*
Y379468D01*
X379516Y375532D02*
Y379468D01*
X379516D02*
X381484D01*
X379516Y375532D02*
X381484D01*
X376000Y376900D02*
Y378100D01*
X375400Y377500D02*
X376600D01*
X376984Y375532D02*
Y379468D01*
X375016Y375532D02*
Y379468D01*
X375016D02*
X376984D01*
X375016Y375532D02*
X376984D01*
X308516Y444969D02*
X310484D01*
X308516Y441032D02*
X310484D01*
X310484D02*
Y444969D01*
X308516Y441032D02*
Y444969D01*
X308900Y443000D02*
X310100D01*
X309500Y442400D02*
Y443600D01*
X323516Y441032D02*
X325484D01*
X323516Y444969D02*
X325484D01*
X323516Y441032D02*
Y444969D01*
X325484Y441032D02*
Y444969D01*
X323900Y443000D02*
X325100D01*
X324500Y442400D02*
Y443600D01*
X332516Y414532D02*
X334484D01*
X332516Y418469D02*
X334484D01*
X332516Y414532D02*
Y418469D01*
X334484Y414532D02*
Y418469D01*
X332900Y416500D02*
X334100D01*
X333500Y415900D02*
Y417100D01*
X393531Y376516D02*
Y378484D01*
X397468Y376516D02*
Y378484D01*
X393531Y378484D02*
X397468D01*
X393531Y376516D02*
X397468D01*
X395500Y376900D02*
Y378100D01*
X394900Y377500D02*
X396100D01*
X394900Y387500D02*
X396100D01*
X395500Y386900D02*
Y388100D01*
X393531Y386516D02*
X397468D01*
X393531Y388484D02*
X397468D01*
Y386516D02*
Y388484D01*
X393531Y386516D02*
Y388484D01*
X394900Y382500D02*
X396100D01*
X395500Y381900D02*
Y383100D01*
X393531Y381516D02*
X397468D01*
X393531Y383484D02*
X397468D01*
Y381516D02*
Y383484D01*
X393531Y381516D02*
Y383484D01*
X425016Y423468D02*
X426984D01*
X425016Y419531D02*
X426984D01*
X426984D02*
Y423468D01*
X425016Y419531D02*
Y423468D01*
X425400Y421500D02*
X426600D01*
X426000Y420900D02*
Y422100D01*
Y412400D02*
Y413600D01*
X425400Y413000D02*
X426600D01*
X425016Y411031D02*
Y414968D01*
X426984Y411031D02*
Y414968D01*
X425016Y411031D02*
X426984D01*
X425016Y414968D02*
X426984D01*
X317016Y407469D02*
X318984D01*
X317016Y403532D02*
X318984D01*
X318984D02*
Y407469D01*
X317016Y403532D02*
Y407469D01*
X317400Y405500D02*
X318600D01*
X318000Y404900D02*
Y406100D01*
X305516Y403532D02*
X307484D01*
X305516Y407469D02*
X307484D01*
X305516Y403532D02*
Y407469D01*
X307484Y403532D02*
Y407469D01*
X305900Y405500D02*
X307100D01*
X306500Y404900D02*
Y406100D01*
D70*
X359055Y369996D02*
Y382004D01*
X365945Y369996D02*
Y382004D01*
X359055D02*
X365945D01*
X359055Y369996D02*
X365945D01*
M02*
