G04*
G04 #@! TF.GenerationSoftware,Altium Limited,Altium Designer,21.9.2 (33)*
G04*
G04 Layer_Color=8388736*
%FSLAX25Y25*%
%MOIN*%
G70*
G04*
G04 #@! TF.SameCoordinates,B3B583D4-C640-4B2B-ADA5-D9C5F36933B9*
G04*
G04*
G04 #@! TF.FilePolarity,Negative*
G04*
G01*
G75*
%ADD33R,0.28000X0.22500*%
G04:AMPARAMS|DCode=34|XSize=26mil|YSize=26mil|CornerRadius=8mil|HoleSize=0mil|Usage=FLASHONLY|Rotation=180.000|XOffset=0mil|YOffset=0mil|HoleType=Round|Shape=RoundedRectangle|*
%AMROUNDEDRECTD34*
21,1,0.02600,0.01000,0,0,180.0*
21,1,0.01000,0.02600,0,0,180.0*
1,1,0.01600,-0.00500,0.00500*
1,1,0.01600,0.00500,0.00500*
1,1,0.01600,0.00500,-0.00500*
1,1,0.01600,-0.00500,-0.00500*
%
%ADD34ROUNDEDRECTD34*%
%ADD35R,0.04734X0.02962*%
%ADD36R,0.02372X0.01781*%
%ADD37O,0.03000X0.08600*%
%ADD38R,0.02962X0.02765*%
G04:AMPARAMS|DCode=39|XSize=26mil|YSize=26mil|CornerRadius=8mil|HoleSize=0mil|Usage=FLASHONLY|Rotation=90.000|XOffset=0mil|YOffset=0mil|HoleType=Round|Shape=RoundedRectangle|*
%AMROUNDEDRECTD39*
21,1,0.02600,0.01000,0,0,90.0*
21,1,0.01000,0.02600,0,0,90.0*
1,1,0.01600,0.00500,0.00500*
1,1,0.01600,0.00500,-0.00500*
1,1,0.01600,-0.00500,-0.00500*
1,1,0.01600,-0.00500,0.00500*
%
%ADD39ROUNDEDRECTD39*%
%ADD40R,0.02765X0.02962*%
G04:AMPARAMS|DCode=41|XSize=22mil|YSize=48mil|CornerRadius=8mil|HoleSize=0mil|Usage=FLASHONLY|Rotation=0.000|XOffset=0mil|YOffset=0mil|HoleType=Round|Shape=RoundedRectangle|*
%AMROUNDEDRECTD41*
21,1,0.02200,0.03200,0,0,0.0*
21,1,0.00600,0.04800,0,0,0.0*
1,1,0.01600,0.00300,-0.01600*
1,1,0.01600,-0.00300,-0.01600*
1,1,0.01600,-0.00300,0.01600*
1,1,0.01600,0.00300,0.01600*
%
%ADD41ROUNDEDRECTD41*%
%ADD42R,0.11624X0.11230*%
G04:AMPARAMS|DCode=43|XSize=166mil|YSize=166mil|CornerRadius=19mil|HoleSize=0mil|Usage=FLASHONLY|Rotation=180.000|XOffset=0mil|YOffset=0mil|HoleType=Round|Shape=RoundedRectangle|*
%AMROUNDEDRECTD43*
21,1,0.16600,0.12800,0,0,180.0*
21,1,0.12800,0.16600,0,0,180.0*
1,1,0.03800,-0.06400,0.06400*
1,1,0.03800,0.06400,0.06400*
1,1,0.03800,0.06400,-0.06400*
1,1,0.03800,-0.06400,-0.06400*
%
%ADD43ROUNDEDRECTD43*%
G04:AMPARAMS|DCode=44|XSize=65.06mil|YSize=17.81mil|CornerRadius=5.95mil|HoleSize=0mil|Usage=FLASHONLY|Rotation=90.000|XOffset=0mil|YOffset=0mil|HoleType=Round|Shape=RoundedRectangle|*
%AMROUNDEDRECTD44*
21,1,0.06506,0.00591,0,0,90.0*
21,1,0.05315,0.01781,0,0,90.0*
1,1,0.01191,0.00295,0.02657*
1,1,0.01191,0.00295,-0.02657*
1,1,0.01191,-0.00295,-0.02657*
1,1,0.01191,-0.00295,0.02657*
%
%ADD44ROUNDEDRECTD44*%
G04:AMPARAMS|DCode=45|XSize=22mil|YSize=48mil|CornerRadius=8mil|HoleSize=0mil|Usage=FLASHONLY|Rotation=270.000|XOffset=0mil|YOffset=0mil|HoleType=Round|Shape=RoundedRectangle|*
%AMROUNDEDRECTD45*
21,1,0.02200,0.03200,0,0,270.0*
21,1,0.00600,0.04800,0,0,270.0*
1,1,0.01600,-0.01600,-0.00300*
1,1,0.01600,-0.01600,0.00300*
1,1,0.01600,0.01600,0.00300*
1,1,0.01600,0.01600,-0.00300*
%
%ADD45ROUNDEDRECTD45*%
G04:AMPARAMS|DCode=46|XSize=37.5mil|YSize=76.87mil|CornerRadius=10.87mil|HoleSize=0mil|Usage=FLASHONLY|Rotation=180.000|XOffset=0mil|YOffset=0mil|HoleType=Round|Shape=RoundedRectangle|*
%AMROUNDEDRECTD46*
21,1,0.03750,0.05512,0,0,180.0*
21,1,0.01575,0.07687,0,0,180.0*
1,1,0.02175,-0.00787,0.02756*
1,1,0.02175,0.00787,0.02756*
1,1,0.02175,0.00787,-0.02756*
1,1,0.02175,-0.00787,-0.02756*
%
%ADD46ROUNDEDRECTD46*%
G04:AMPARAMS|DCode=47|XSize=32.58mil|YSize=15.84mil|CornerRadius=5.46mil|HoleSize=0mil|Usage=FLASHONLY|Rotation=270.000|XOffset=0mil|YOffset=0mil|HoleType=Round|Shape=RoundedRectangle|*
%AMROUNDEDRECTD47*
21,1,0.03258,0.00492,0,0,270.0*
21,1,0.02165,0.01584,0,0,270.0*
1,1,0.01092,-0.00246,-0.01083*
1,1,0.01092,-0.00246,0.01083*
1,1,0.01092,0.00246,0.01083*
1,1,0.01092,0.00246,-0.01083*
%
%ADD47ROUNDEDRECTD47*%
G04:AMPARAMS|DCode=48|XSize=32.58mil|YSize=15.84mil|CornerRadius=5.46mil|HoleSize=0mil|Usage=FLASHONLY|Rotation=180.000|XOffset=0mil|YOffset=0mil|HoleType=Round|Shape=RoundedRectangle|*
%AMROUNDEDRECTD48*
21,1,0.03258,0.00492,0,0,180.0*
21,1,0.02165,0.01584,0,0,180.0*
1,1,0.01092,-0.01083,0.00246*
1,1,0.01092,0.01083,0.00246*
1,1,0.01092,0.01083,-0.00246*
1,1,0.01092,-0.01083,-0.00246*
%
%ADD48ROUNDEDRECTD48*%
%ADD49C,0.07293*%
%ADD50R,0.07293X0.07293*%
%ADD51C,0.16929*%
%ADD52C,0.06693*%
%ADD53O,0.04537X0.06899*%
%ADD54O,0.04537X0.08868*%
%ADD55C,0.03159*%
D33*
X421500Y375750D02*
D03*
D34*
X343500Y372500D02*
D03*
Y376500D02*
D03*
X349000Y372500D02*
D03*
Y376500D02*
D03*
X380500Y375500D02*
D03*
Y379500D02*
D03*
X376000Y375500D02*
D03*
Y379500D02*
D03*
X309500Y441000D02*
D03*
Y445000D02*
D03*
X324500D02*
D03*
Y441000D02*
D03*
X426000Y411000D02*
D03*
X318000Y407500D02*
D03*
X306500D02*
D03*
X333500Y418500D02*
D03*
Y414500D02*
D03*
X426000Y419500D02*
D03*
Y423500D02*
D03*
Y415000D02*
D03*
X318000Y403500D02*
D03*
X306500D02*
D03*
D35*
X367224Y379740D02*
D03*
Y372260D02*
D03*
X357776D02*
D03*
Y376000D02*
D03*
Y379740D02*
D03*
D36*
X314343Y444969D02*
D03*
Y443000D02*
D03*
Y441032D02*
D03*
X319658D02*
D03*
Y443000D02*
D03*
Y444969D02*
D03*
D37*
X346500Y404000D02*
D03*
X351500D02*
D03*
X356500D02*
D03*
X361500D02*
D03*
X366500D02*
D03*
X371500D02*
D03*
X376500D02*
D03*
X381500D02*
D03*
Y426000D02*
D03*
X376500D02*
D03*
X371500D02*
D03*
X366500D02*
D03*
X361500D02*
D03*
X356500D02*
D03*
X351500D02*
D03*
X346500D02*
D03*
D38*
X362753Y391500D02*
D03*
X366493D02*
D03*
X372130D02*
D03*
X375870D02*
D03*
X353377D02*
D03*
X357117D02*
D03*
X347740D02*
D03*
X344000D02*
D03*
X350740Y435500D02*
D03*
X347000D02*
D03*
D39*
X393500Y382500D02*
D03*
Y387500D02*
D03*
X397500Y377500D02*
D03*
X393500D02*
D03*
X397500Y387500D02*
D03*
Y382500D02*
D03*
D40*
X322500Y403630D02*
D03*
X297000Y425760D02*
D03*
X322500Y407370D02*
D03*
X297000Y429500D02*
D03*
D41*
X314032Y414850D02*
D03*
X310094D02*
D03*
X312063D02*
D03*
X316000D02*
D03*
X317969D02*
D03*
X319937D02*
D03*
X321905D02*
D03*
Y433150D02*
D03*
X319937D02*
D03*
X317969D02*
D03*
X316000D02*
D03*
X314032D02*
D03*
X312063D02*
D03*
X310094D02*
D03*
D42*
X316000Y424000D02*
D03*
D43*
X406516Y410738D02*
D03*
D44*
X297839Y395342D02*
D03*
X324217D02*
D03*
X323035D02*
D03*
X299020D02*
D03*
X300988D02*
D03*
X302169D02*
D03*
X304138D02*
D03*
X306106D02*
D03*
X308075D02*
D03*
X310043D02*
D03*
X312012D02*
D03*
X313980D02*
D03*
X315949D02*
D03*
X317917D02*
D03*
X319886D02*
D03*
X321067D02*
D03*
D45*
X325150Y418094D02*
D03*
Y420063D02*
D03*
Y422031D02*
D03*
Y424000D02*
D03*
Y425969D02*
D03*
Y427937D02*
D03*
Y429906D02*
D03*
X306850D02*
D03*
Y427937D02*
D03*
Y425969D02*
D03*
Y424000D02*
D03*
Y422031D02*
D03*
Y420063D02*
D03*
Y418094D02*
D03*
D46*
X410910Y381000D02*
D03*
X431000D02*
D03*
D47*
X417343Y397500D02*
D03*
X415374D02*
D03*
X413406D02*
D03*
X411437D02*
D03*
X409469D02*
D03*
X407500D02*
D03*
X405532D02*
D03*
X403563D02*
D03*
X401594D02*
D03*
X399626D02*
D03*
X397657D02*
D03*
X395689D02*
D03*
Y423976D02*
D03*
X397657D02*
D03*
X399626D02*
D03*
X401594D02*
D03*
X403563D02*
D03*
X405532D02*
D03*
X407500D02*
D03*
X409469D02*
D03*
X411437D02*
D03*
X413406D02*
D03*
X415374D02*
D03*
X417343D02*
D03*
D48*
X393278Y399911D02*
D03*
Y401880D02*
D03*
Y403848D02*
D03*
Y405817D02*
D03*
Y407785D02*
D03*
Y409754D02*
D03*
Y411722D02*
D03*
Y413691D02*
D03*
Y415660D02*
D03*
Y417628D02*
D03*
Y419596D02*
D03*
Y421565D02*
D03*
X419754D02*
D03*
Y419596D02*
D03*
Y417628D02*
D03*
Y415660D02*
D03*
Y413691D02*
D03*
Y411722D02*
D03*
Y409754D02*
D03*
Y407785D02*
D03*
Y405817D02*
D03*
Y403848D02*
D03*
Y401880D02*
D03*
Y399911D02*
D03*
D49*
X288500Y415000D02*
D03*
D50*
Y405000D02*
D03*
D51*
X408500Y462500D02*
D03*
X310073D02*
D03*
D52*
X342929Y468091D02*
D03*
X353833D02*
D03*
X364740D02*
D03*
X375644D02*
D03*
X337476Y456911D02*
D03*
X348380D02*
D03*
X359287D02*
D03*
X370191D02*
D03*
X381098D02*
D03*
D53*
X328055Y375500D02*
D03*
X294000D02*
D03*
D54*
Y391248D02*
D03*
X328055D02*
D03*
D55*
X322406Y389280D02*
D03*
X299650D02*
D03*
M02*
