G04*
G04 #@! TF.GenerationSoftware,Altium Limited,Altium Designer,21.9.2 (33)*
G04*
G04 Layer_Color=65535*
%FSLAX25Y25*%
%MOIN*%
G70*
G04*
G04 #@! TF.SameCoordinates,B3B583D4-C640-4B2B-ADA5-D9C5F36933B9*
G04*
G04*
G04 #@! TF.FilePolarity,Positive*
G04*
G01*
G75*
%ADD10C,0.00984*%
%ADD11C,0.00787*%
%ADD12C,0.01000*%
%ADD13C,0.00100*%
%ADD14C,0.00591*%
%ADD15C,0.00600*%
%ADD16C,0.00800*%
%ADD17C,0.00394*%
G36*
X325450Y442350D02*
X325100Y442350D01*
Y443650D01*
X325450Y443650D01*
Y442350D01*
D02*
G37*
G36*
X323900D02*
X323550D01*
Y443650D01*
X323900D01*
Y442350D01*
D02*
G37*
G36*
X310450D02*
X310100D01*
Y443650D01*
X310450D01*
Y442350D01*
D02*
G37*
G36*
X308900Y443650D02*
Y442350D01*
X308550Y442350D01*
Y443650D01*
X308900Y443650D01*
D02*
G37*
G36*
X334450Y415850D02*
X334100Y415850D01*
Y417150D01*
X334450Y417150D01*
Y415850D01*
D02*
G37*
G36*
X332900D02*
X332550D01*
Y417150D01*
X332900D01*
Y415850D01*
D02*
G37*
G36*
X318950Y404850D02*
X318600D01*
Y406150D01*
X318950D01*
Y404850D01*
D02*
G37*
G36*
X317400Y406150D02*
Y404850D01*
X317050Y404850D01*
Y406150D01*
X317400Y406150D01*
D02*
G37*
G36*
X307450Y404850D02*
X307100Y404850D01*
Y406150D01*
X307450Y406150D01*
Y404850D01*
D02*
G37*
G36*
X305900D02*
X305550D01*
Y406150D01*
X305900D01*
Y404850D01*
D02*
G37*
G36*
X349900Y374800D02*
X348100D01*
Y375150D01*
X349900D01*
Y374800D01*
D02*
G37*
G36*
X344400D02*
X342600D01*
Y375150D01*
X344400D01*
Y374800D01*
D02*
G37*
G36*
X349900Y373850D02*
X348100D01*
Y374200D01*
X349900D01*
Y373850D01*
D02*
G37*
G36*
X344400D02*
X342600D01*
Y374200D01*
X344400D01*
Y373850D01*
D02*
G37*
G36*
X426950Y420850D02*
X426600D01*
Y422150D01*
X426950D01*
Y420850D01*
D02*
G37*
G36*
X425400Y422150D02*
Y420850D01*
X425050Y420850D01*
Y422150D01*
X425400Y422150D01*
D02*
G37*
G36*
X426900Y413300D02*
X425100D01*
Y413650D01*
X426900D01*
Y413300D01*
D02*
G37*
G36*
Y412350D02*
X425100D01*
Y412700D01*
X426900D01*
Y412350D01*
D02*
G37*
G36*
X396150Y386600D02*
X395800D01*
Y388400D01*
X396150D01*
Y386600D01*
D02*
G37*
G36*
X395200D02*
X394850D01*
Y388400D01*
X395200D01*
Y386600D01*
D02*
G37*
G36*
X396150Y381600D02*
X395800D01*
Y383400D01*
X396150D01*
Y381600D01*
D02*
G37*
G36*
X395200D02*
X394850D01*
Y383400D01*
X395200D01*
Y381600D01*
D02*
G37*
G36*
X396150Y378100D02*
X394850D01*
Y378450D01*
X396150D01*
Y378100D01*
D02*
G37*
G36*
X381400Y377800D02*
X379600D01*
Y378150D01*
X381400D01*
Y377800D01*
D02*
G37*
G36*
X376900D02*
X375100D01*
Y378150D01*
X376900D01*
Y377800D01*
D02*
G37*
G36*
X381400Y376850D02*
X379600D01*
Y377200D01*
X381400D01*
Y376850D01*
D02*
G37*
G36*
X376900D02*
X375100D01*
Y377200D01*
X376900D01*
Y376850D01*
D02*
G37*
G36*
X396150Y376550D02*
X394850D01*
X394850Y376900D01*
X396150D01*
X396150Y376550D01*
D02*
G37*
D10*
X358268Y383087D02*
G03*
X358268Y383087I-492J0D01*
G01*
X310492Y410500D02*
G03*
X310492Y410500I-492J0D01*
G01*
D11*
X313653Y446839D02*
G03*
X313653Y446839I-394J0D01*
G01*
X363681Y369898D02*
Y382102D01*
X361319Y369898D02*
Y382102D01*
Y369898D02*
X363681D01*
X361319Y382102D02*
X363681D01*
D12*
X344000Y412500D02*
G03*
X344000Y417500I0J2500D01*
G01*
Y410000D02*
Y412500D01*
Y417500D02*
Y420000D01*
X384000D01*
Y410000D02*
Y420000D01*
X344000Y410000D02*
X384000D01*
X298578Y451280D02*
Y499902D01*
X419995Y451280D02*
Y499902D01*
X298578Y451280D02*
X419995D01*
X392751Y499902D02*
Y523525D01*
X325822Y499902D02*
Y523525D01*
X392751D01*
X303281Y499902D02*
Y518800D01*
X321982D01*
Y499902D02*
Y518800D01*
X312464Y499902D02*
Y518800D01*
X396678Y499902D02*
Y518800D01*
X415379D01*
Y499902D02*
Y518800D01*
X405862Y499902D02*
Y518800D01*
X298578Y499902D02*
X419995D01*
X427200Y377900D02*
Y384000D01*
X392600Y434598D02*
Y429600D01*
X393600Y428600D01*
X395599D01*
X396599Y429600D01*
Y434598D01*
X398598Y433598D02*
X399598Y434598D01*
X401597D01*
X402597Y433598D01*
Y432599D01*
X401597Y431599D01*
X400597D01*
X401597D01*
X402597Y430599D01*
Y429600D01*
X401597Y428600D01*
X399598D01*
X398598Y429600D01*
X299100Y527000D02*
Y532998D01*
X302099D01*
X303099Y531998D01*
Y529999D01*
X302099Y528999D01*
X299100D01*
X301099D02*
X303099Y527000D01*
X305098D02*
X307097D01*
X306098D01*
Y532998D01*
X305098Y531998D01*
D13*
X344400Y374800D02*
Y375150D01*
X342600Y374800D02*
Y375150D01*
Y374800D02*
X344400D01*
X342600Y375150D02*
X344400D01*
X342600Y373850D02*
X344400D01*
X342600Y374200D02*
X344400D01*
Y373850D02*
Y374200D01*
X342600Y373850D02*
Y374200D01*
X349900Y374800D02*
Y375150D01*
X348100Y374800D02*
Y375150D01*
Y374800D02*
X349900D01*
X348100Y375150D02*
X349900D01*
X348100Y373850D02*
X349900D01*
X348100Y374200D02*
X349900D01*
Y373850D02*
Y374200D01*
X348100Y373850D02*
Y374200D01*
X381400Y377800D02*
Y378150D01*
X379600Y377800D02*
Y378150D01*
Y377800D02*
X381400D01*
X379600Y378150D02*
X381400D01*
X379600Y376850D02*
X381400D01*
X379600Y377200D02*
X381400D01*
Y376850D02*
Y377200D01*
X379600Y376850D02*
Y377200D01*
X376900Y377800D02*
Y378150D01*
X375100Y377800D02*
Y378150D01*
Y377800D02*
X376900D01*
X375100Y378150D02*
X376900D01*
X375100Y376850D02*
X376900D01*
X375100Y377200D02*
X376900D01*
Y376850D02*
Y377200D01*
X375100Y376850D02*
Y377200D01*
X308550Y442350D02*
Y443650D01*
X308900Y443650D01*
Y442350D02*
Y443650D01*
X308550Y442350D02*
X308900Y442350D01*
X310100Y443650D02*
X310450D01*
X310100Y442350D02*
Y443650D01*
Y442350D02*
X310450D01*
Y443650D01*
X325450Y442350D02*
Y443650D01*
X325100Y442350D02*
X325450Y442350D01*
X325100Y442350D02*
Y443650D01*
X325450Y443650D01*
X323550Y442350D02*
X323900D01*
Y443650D01*
X323550D02*
X323900D01*
X323550Y442350D02*
Y443650D01*
X334450Y415850D02*
Y417150D01*
X334100Y415850D02*
X334450Y415850D01*
X334100Y415850D02*
Y417150D01*
X334450Y417150D01*
X332550Y415850D02*
X332900D01*
Y417150D01*
X332550D02*
X332900D01*
X332550Y415850D02*
Y417150D01*
X394850Y376550D02*
X396150D01*
X394850D02*
X394850Y376900D01*
X396150D01*
X396150Y376550D01*
X394850Y378100D02*
Y378450D01*
Y378100D02*
X396150D01*
Y378450D01*
X394850D02*
X396150D01*
X395800Y386600D02*
X396150D01*
X395800Y388400D02*
X396150D01*
X395800Y386600D02*
Y388400D01*
X396150Y386600D02*
Y388400D01*
X394850Y386600D02*
Y388400D01*
X395200Y386600D02*
Y388400D01*
X394850Y386600D02*
X395200D01*
X394850Y388400D02*
X395200D01*
X395800Y381600D02*
X396150D01*
X395800Y383400D02*
X396150D01*
X395800Y381600D02*
Y383400D01*
X396150Y381600D02*
Y383400D01*
X394850Y381600D02*
Y383400D01*
X395200Y381600D02*
Y383400D01*
X394850Y381600D02*
X395200D01*
X394850Y383400D02*
X395200D01*
X425050Y420850D02*
Y422150D01*
X425400Y422150D01*
Y420850D02*
Y422150D01*
X425050Y420850D02*
X425400Y420850D01*
X426600Y422150D02*
X426950D01*
X426600Y420850D02*
Y422150D01*
Y420850D02*
X426950D01*
Y422150D01*
X425100Y412350D02*
Y412700D01*
X426900Y412350D02*
Y412700D01*
X425100D02*
X426900D01*
X425100Y412350D02*
X426900D01*
X425100Y413650D02*
X426900D01*
X425100Y413300D02*
X426900D01*
X425100D02*
Y413650D01*
X426900Y413300D02*
Y413650D01*
X317050Y404850D02*
Y406150D01*
X317400Y406150D01*
Y404850D02*
Y406150D01*
X317050Y404850D02*
X317400Y404850D01*
X318600Y406150D02*
X318950D01*
X318600Y404850D02*
Y406150D01*
Y404850D02*
X318950D01*
Y406150D01*
X307450Y404850D02*
Y406150D01*
X307100Y404850D02*
X307450Y404850D01*
X307100Y404850D02*
Y406150D01*
X307450Y406150D01*
X305550Y404850D02*
X305900D01*
Y406150D01*
X305550D02*
X305900D01*
X305550Y404850D02*
Y406150D01*
D14*
X314638Y446543D02*
X319362D01*
X314638Y439457D02*
X319362D01*
D15*
X368068Y389700D02*
Y393300D01*
X365623D02*
X368068D01*
X365623Y389700D02*
X368068D01*
X361178D02*
Y393300D01*
Y389700D02*
X363623D01*
X361179Y393300D02*
X363623D01*
X377445Y389700D02*
Y393300D01*
X375000D02*
X377445D01*
X375000Y389700D02*
X377445D01*
X370555D02*
Y393300D01*
Y389700D02*
X373000D01*
X370555Y393300D02*
X373000D01*
X358692Y389700D02*
Y393300D01*
X356247D02*
X358692D01*
X356247Y389700D02*
X358691D01*
X351802D02*
Y393300D01*
Y389700D02*
X354247D01*
X351802Y393300D02*
X354247D01*
X342425Y389700D02*
Y393300D01*
Y389700D02*
X344870D01*
X342425Y393300D02*
X344870D01*
X349315Y389700D02*
Y393300D01*
X346870D02*
X349315D01*
X346870Y389700D02*
X349315D01*
X345425Y433700D02*
Y437300D01*
Y433700D02*
X347870D01*
X345425Y437300D02*
X347870D01*
X352315Y433700D02*
Y437300D01*
X349870D02*
X352315D01*
X349870Y433700D02*
X352315D01*
X306150Y433850D02*
X308185D01*
X325850Y431815D02*
Y433850D01*
X306150Y414150D02*
Y416185D01*
X325850Y414150D02*
Y416185D01*
X323815Y433850D02*
X325850D01*
X306150Y431815D02*
Y433850D01*
Y414150D02*
X308185D01*
X323815D02*
X325850D01*
X320700Y408945D02*
X324300D01*
X320700Y406500D02*
Y408945D01*
X324300Y406500D02*
Y408945D01*
X320700Y402055D02*
X324300D01*
Y404500D01*
X320700Y402055D02*
Y404500D01*
X295200Y431075D02*
X298800D01*
X295200Y428630D02*
Y431075D01*
X298800Y428630D02*
Y431075D01*
X295200Y424185D02*
X298800D01*
Y426630D01*
X295200Y424185D02*
Y426630D01*
D16*
X294000Y365264D02*
X328055D01*
X294000D02*
Y371282D01*
X294028Y379281D02*
Y386281D01*
X328055Y365264D02*
Y371282D01*
X328028Y379281D02*
Y386281D01*
D17*
X392736Y396959D02*
Y398534D01*
Y396959D02*
X394311D01*
X392736Y424518D02*
X394311D01*
X420295Y422943D02*
Y424518D01*
X418720D02*
X420295D01*
X392736Y422943D02*
Y424518D01*
X418720Y396959D02*
X420295Y398534D01*
M02*
