G04*
G04 #@! TF.GenerationSoftware,Altium Limited,Altium Designer,21.9.2 (33)*
G04*
G04 Layer_Color=16711935*
%FSLAX25Y25*%
%MOIN*%
G70*
G04*
G04 #@! TF.SameCoordinates,B3B583D4-C640-4B2B-ADA5-D9C5F36933B9*
G04*
G04*
G04 #@! TF.FilePolarity,Positive*
G04*
G01*
G75*
%ADD15C,0.00600*%
%ADD67C,0.00000*%
D15*
X281500Y372000D02*
G03*
X286500Y367000I5000J0D01*
G01*
X430000D02*
G03*
X435000Y372000I0J5000D01*
G01*
Y495000D02*
G03*
X430000Y500000I-5000J0D01*
G01*
X286500D02*
G03*
X281500Y495000I0J-5000D01*
G01*
X286500Y367000D02*
X430000D01*
X435000Y372000D02*
Y495000D01*
X286500Y500000D02*
X430000D01*
X281500Y495000D02*
X281500Y372000D01*
D67*
X306150Y429306D02*
Y430506D01*
Y429306D02*
Y430506D01*
Y427337D02*
Y428537D01*
Y427337D02*
Y428537D01*
Y425368D02*
Y426569D01*
Y425368D02*
Y426569D01*
Y423400D02*
Y424600D01*
Y423400D02*
Y424600D01*
Y421431D02*
Y422632D01*
Y421431D02*
Y422632D01*
Y419463D02*
Y420663D01*
Y419463D02*
Y420663D01*
Y417494D02*
Y418694D01*
Y417494D02*
Y418694D01*
X309494Y414150D02*
X310695D01*
X309494D02*
X310695D01*
X311463D02*
X312663D01*
X311463D02*
X312663D01*
X313432D02*
X314632D01*
X313432D02*
X314632D01*
X315400D02*
X316600D01*
X315400D02*
X316600D01*
X317369D02*
X318568D01*
X317369D02*
X318568D01*
X319337D02*
X320537D01*
X319337D02*
X320537D01*
X321305D02*
X322505D01*
X321305D02*
X322505D01*
X325850Y417494D02*
Y418694D01*
Y417494D02*
Y418694D01*
Y419463D02*
Y420663D01*
Y419463D02*
Y420663D01*
Y421431D02*
Y422632D01*
Y421431D02*
Y422632D01*
Y423400D02*
Y424600D01*
Y423400D02*
Y424600D01*
Y425368D02*
Y426569D01*
Y425368D02*
Y426569D01*
Y427337D02*
Y428537D01*
Y427337D02*
Y428537D01*
Y429306D02*
Y430506D01*
Y429306D02*
Y430506D01*
X321305Y433850D02*
X322505D01*
X321305D02*
X322505D01*
X319337D02*
X320537D01*
X319337D02*
X320537D01*
X317369D02*
X318568D01*
X317369D02*
X318568D01*
X315400D02*
X316600D01*
X315400D02*
X316600D01*
X313432D02*
X314632D01*
X313432D02*
X314632D01*
X311463D02*
X312663D01*
X311463D02*
X312663D01*
X309494D02*
X310695D01*
X309494D02*
X310695D01*
X325850Y414150D02*
Y433850D01*
X306150D02*
X325850D01*
X306150Y414150D02*
Y433850D01*
Y414150D02*
X325850D01*
M02*
