M48
;Layer_Color=9474304
;FILE_FORMAT=2:5
INCH,LZ
;TYPE=PLATED
T1F00S00C0.00800
T3F00S00C0.02559
T4F00S00C0.03543
T5F00S00C0.04291
T6F00S00C0.12992
%
T01
X031Y039
X0312Y04245
X03015Y04235
Y04265
X03Y04205
X03015Y0444
X0312Y0441
X03125Y04285
X0316
X03205
Y04245
X03165
X03265Y04095
Y04075
X03285
Y04095
X03465Y03975
X0352Y03915
X0314Y039
X0322Y0445
X03965Y0438838
X04015Y0416
X0405
X04055Y0412
X04095
Y0416
X041Y0408
X0406
X0401
Y0412
X04035Y0392
X0401Y0389
X04295Y042
T03
X029965Y038928
X0322406
T04
X02885Y0405
Y0415
T05
X0337476Y0456911
X034838
X0359287
X0370191
X0381098
X0375644Y0468091
X036474
X0353833
X0342929
T06
X0310073Y04625
X04085
M30
